<?xml version="1.0" standalone="no"?>
<!DOCTYPE svg PUBLIC "-//W3C//DTD SVG 20010904//EN"
 "http://www.w3.org/TR/2001/REC-SVG-20010904/DTD/svg10.dtd">
<svg version="1.0" xmlns="http://www.w3.org/2000/svg"
 width="802.000000pt" height="335.000000pt" viewBox="0 0 802.000000 335.000000"
 preserveAspectRatio="xMidYMid meet">
<metadata>
Created by potrace 1.15, written by Peter Selinger 2001-2017
</metadata>
<g transform="translate(0.000000,335.000000) scale(0.100000,-0.100000)"
fill="#000000" stroke="none">
<path d="M3857 3280 c-128 -139 -208 -353 -206 -559 0 -74 3 -99 9 -83 9 21
30 31 30 13 0 -4 20 -7 45 -6 58 2 65 -4 72 -54 5 -33 3 -41 -11 -41 -18 0
-22 16 -4 22 23 8 -4 30 -28 24 -26 -7 -31 3 -12 22 9 9 6 12 -15 12 -28 0
-47 -24 -47 -60 0 -18 -3 -19 -20 -10 -20 11 -20 9 -14 -52 3 -35 12 -88 20
-119 21 -83 19 -85 -37 -35 -29 26 -53 45 -55 43 -2 -2 2 -29 8 -60 l12 -58
76 -40 c249 -135 437 -343 525 -582 14 -37 21 -45 31 -36 10 9 16 5 25 -15 7
-14 18 -26 25 -26 7 0 16 -5 19 -10 4 -6 3 -10 -2 -9 -4 1 -28 1 -52 0 l-43
-1 4 -99 c2 -55 0 -97 -4 -95 -5 3 -11 -2 -14 -10 -3 -9 -10 -13 -15 -10 -5 3
-6 -2 -3 -10 3 -9 9 -16 14 -16 4 0 17 -9 29 -19 22 -19 22 -21 7 -77 -8 -32
-12 -61 -7 -64 4 -3 10 -13 14 -22 8 -22 53 -52 67 -43 20 13 9 30 -31 47
l-41 18 7 47 c11 73 7 75 62 -28 l40 -76 -18 -37 c-10 -21 -24 -44 -30 -52 -7
-8 -13 -24 -15 -37 -3 -12 -7 -36 -10 -54 -3 -18 -2 -46 4 -62 8 -22 7 -31 -1
-34 -8 -3 -3 -11 11 -22 12 -9 22 -27 22 -41 0 -13 4 -24 9 -24 5 0 12 -9 16
-19 7 -23 28 -31 100 -40 48 -6 50 -8 56 -41 4 -19 7 -30 8 -25 1 6 8 2 15 -8
8 -10 18 -17 22 -16 5 1 12 0 17 -1 4 -1 10 -3 15 -5 7 -2 50 -19 82 -32 8 -3
25 -8 38 -10 20 -3 22 0 22 49 0 29 -9 84 -20 121 -15 55 -16 66 -5 57 12 -10
15 -10 15 -1 0 7 5 9 11 5 6 -3 14 -2 18 3 4 7 30 7 76 1 39 -6 78 -11 88 -11
9 -1 17 -5 17 -9 0 -5 19 4 42 18 23 15 67 38 98 52 l55 25 -55 25 c-30 13
-49 27 -42 29 6 3 10 9 6 14 -3 5 0 8 8 7 7 -2 12 3 10 10 -1 8 1 11 6 9 12
-8 134 94 157 131 11 17 22 31 25 32 5 0 70 -104 70 -112 0 -2 -17 -2 -39 0
-30 3 -40 0 -45 -15 -8 -19 33 -63 59 -63 8 0 26 -11 40 -24 16 -15 52 -30 95
-40 67 -15 159 -54 190 -81 22 -20 165 -70 241 -85 75 -15 114 -9 129 20 13
24 -7 62 -30 55 -28 -8 -75 -15 -62 -9 28 13 11 26 -27 19 -22 -4 -42 -2 -45
3 -4 6 3 8 16 5 17 -3 19 -2 10 5 -11 7 -10 11 4 16 9 4 22 2 27 -3 5 -5 16
-7 24 -4 8 3 13 0 11 -8 -2 -8 4 -14 12 -14 8 0 14 5 13 12 -2 8 6 9 26 3 25
-7 35 -2 79 36 34 30 62 67 84 111 30 62 33 74 36 193 4 123 3 128 -27 205
-35 87 -102 193 -153 242 -18 18 -76 60 -128 93 -95 61 -185 95 -310 119 l-55
10 75 -4 c41 -3 89 -7 106 -11 36 -7 77 22 52 37 -9 6 -3 10 20 15 17 4 32 12
32 19 0 20 73 0 154 -43 44 -23 97 -63 141 -107 92 -91 141 -147 138 -156 -2
-5 11 -36 27 -71 17 -35 30 -69 30 -75 0 -28 30 -10 68 40 133 172 175 436
107 672 -32 111 -93 243 -146 313 -25 33 -33 48 -20 40 17 -10 23 -9 40 6 11
10 34 21 50 25 l31 6 -27 33 c-14 19 -29 30 -32 25 -3 -4 -23 -19 -43 -33 -21
-14 -38 -29 -38 -34 0 -4 -42 31 -92 80 -99 94 -208 170 -295 205 -71 29 -61
36 12 8 l57 -21 53 24 54 24 -42 21 c-82 39 -158 55 -267 56 -79 0 -112 -4
-135 -16 -16 -9 -36 -17 -43 -17 -7 0 -11 -4 -7 -9 3 -6 -7 -9 -22 -8 -21 2
-33 12 -49 42 -23 44 -39 47 -87 13 -15 -11 -30 -19 -32 -17 -1 2 -31 42 -65
89 -69 94 -219 246 -296 300 -27 19 -43 27 -36 19 27 -35 61 -109 52 -114 -6
-4 -14 5 -20 19 -13 36 -29 32 -23 -5 3 -23 1 -29 -8 -24 -8 5 -10 4 -5 -3 4
-7 13 -12 20 -12 7 0 34 -16 60 -35 33 -26 46 -32 46 -20 0 8 -7 15 -15 15 -8
0 -15 7 -15 15 0 19 20 15 41 -7 19 -21 34 -24 23 -5 -4 6 -3 9 1 4 11 -9 13
-57 3 -57 -4 0 -8 5 -8 11 0 5 -5 7 -10 4 -6 -4 -8 -11 -4 -16 3 -6 -2 -20
-13 -32 l-18 -22 23 19 c12 11 22 14 22 9 0 -6 -7 -16 -15 -23 -8 -7 -15 -19
-15 -26 0 -17 -12 -18 -29 -1 -10 10 -11 9 -6 -5 4 -10 11 -18 15 -18 4 0 10
-12 13 -27 9 -47 97 -81 133 -53 17 14 18 14 6 -2 -9 -11 -10 -18 -2 -23 6 -3
8 -11 5 -16 -12 -19 18 -8 35 13 l18 22 31 -49 c18 -28 36 -50 41 -50 14 0 9
-16 -14 -42 -11 -13 -29 -23 -41 -23 -11 0 -25 -4 -30 -9 -23 -23 -64 37 -66
96 -1 38 -1 38 -9 8 -6 -25 -15 -19 -11 8 0 4 -4 7 -9 7 -6 0 -10 8 -10 17 0
9 -2 14 -5 11 -8 -8 -90 71 -87 84 2 6 -4 8 -12 5 -8 -3 -17 -1 -19 6 -2 7 -7
9 -11 6 -3 -3 18 -39 47 -80 54 -76 108 -162 90 -144 -5 6 -35 46 -66 90 -30
44 -86 109 -123 145 l-68 65 51 -60 c91 -109 188 -265 165 -265 -4 0 -27 27
-50 60 -43 60 -113 113 -98 74 4 -11 -27 16 -69 58 -74 75 -204 171 -235 173
-9 0 -21 4 -28 9 -7 4 -12 2 -12 -4 0 -6 15 -17 33 -25 34 -15 34 -16 0 -20
-13 -1 -23 1 -23 5 0 4 -7 10 -14 13 -9 4 -13 1 -10 -6 2 -7 39 -33 81 -57
143 -83 298 -263 365 -423 26 -62 29 -74 19 -111 -20 -81 -22 -99 -22 -229 0
-131 3 -159 21 -227 14 -49 14 -50 -24 -113 l-34 -57 61 -59 61 -59 -34 -28
c-18 -16 -46 -37 -62 -46 -15 -10 -28 -22 -28 -26 0 -22 16 -20 41 4 15 14 39
27 53 28 16 0 29 8 32 19 4 14 9 16 20 6 8 -6 14 -14 14 -18 0 -3 -25 -26 -56
-51 -44 -35 -55 -49 -51 -67 6 -31 1 -29 -19 9 -25 47 -119 143 -188 190 -89
60 -171 95 -261 111 -71 12 -77 15 -50 22 27 8 144 -15 208 -40 13 -5 17 -2
17 14 0 15 6 21 21 21 11 0 18 4 14 9 -7 13 85 26 94 14 5 -9 41 -14 41 -7 0
10 -64 35 -76 30 -9 -3 -12 -1 -9 4 15 25 -129 48 -193 31 -22 -7 -44 -16 -47
-21 -4 -6 4 -6 20 0 15 6 41 9 58 9 31 -1 31 -2 -8 -10 -22 -5 -54 -10 -70
-12 -17 -2 -41 -9 -53 -16 -29 -15 -115 -42 -120 -36 -2 2 6 8 17 15 20 10 19
13 -26 47 -27 19 -61 47 -78 62 -16 14 -23 18 -16 9 7 -9 9 -23 5 -29 -5 -9
-2 -10 9 -6 11 4 14 2 10 -9 -3 -7 -11 -14 -19 -14 -8 0 -14 -5 -14 -11 0 -19
-28 -39 -47 -33 -10 3 -7 -2 7 -10 18 -11 20 -15 9 -16 -9 0 -20 -7 -23 -16
-4 -10 -2 -13 6 -8 6 4 8 3 4 -4 -3 -6 8 -22 26 -36 18 -14 28 -26 22 -26 -36
0 -224 191 -268 274 -22 41 -20 45 17 48 14 1 24 6 21 10 -3 4 6 12 18 19 20
11 21 10 11 -2 -10 -13 -8 -15 15 -13 43 2 44 3 38 19 -4 12 -2 13 14 2 11 -6
20 -15 20 -20 0 -4 4 -6 9 -2 5 3 -10 42 -34 88 -53 100 -90 196 -106 277 -8
41 -15 57 -20 48 -5 -7 -9 -10 -9 -5 0 4 -10 1 -23 -8 -13 -8 -45 -17 -70 -20
l-47 -6 0 92 c0 163 50 289 153 387 59 55 171 115 237 125 24 4 24 4 -3 6 -16
0 -37 -4 -48 -10 -15 -8 -24 -7 -35 2 -12 10 -15 10 -12 -1 2 -8 -6 -14 -19
-14 -13 -1 -22 3 -22 8 2 19 -25 24 -38 8 -7 -9 -13 -13 -13 -9 0 4 -10 3 -22
-3 -23 -11 -23 -11 -3 5 35 29 92 54 177 79 l83 24 -50 4 -50 3 50 17 50 18
-67 -5 c-37 -3 -86 -14 -110 -25 -51 -23 -86 -27 -70 -7 8 10 2 12 -30 10 -30
-1 -39 1 -34 12 3 8 -8 24 -24 36 -16 13 -26 27 -23 32 3 5 9 3 14 -4 6 -11
11 -11 21 -1 9 9 9 12 -2 13 -8 0 -5 4 8 9 22 10 31 30 11 30 -5 0 -7 5 -4 10
14 23 -26 8 -52 -20 -15 -16 -32 -30 -36 -30 -4 0 5 14 22 32 40 43 28 57 -15
18 -19 -16 -37 -30 -39 -30 -11 0 -4 10 22 35 15 14 23 25 16 25 -6 0 -40 -31
-76 -70z m1653 -537 c31 -65 38 -113 16 -113 -9 0 -16 -7 -16 -15 0 -13 -33
-55 -44 -55 -3 0 -7 13 -11 30 -3 16 -22 66 -40 112 -19 46 -28 75 -21 66 16
-21 30 -24 23 -4 -4 10 0 12 14 9 10 -3 19 -9 19 -14 0 -5 5 -9 11 -9 6 0 8 9
4 20 -13 41 23 20 45 -27z m-830 -1170 c39 -16 72 -44 103 -88 l21 -30 -37 33
c-21 17 -40 32 -43 32 -3 0 6 -15 19 -32 39 -53 43 -62 23 -55 -9 4 -15 3 -11
-2 3 -5 -17 -26 -45 -46 -27 -20 -50 -39 -50 -41 0 -6 19 4 40 21 20 16 53 27
45 16 -3 -5 -1 -13 5 -16 13 -8 9 -47 -5 -57 -6 -5 -5 -8 3 -8 6 0 12 -7 12
-16 0 -9 6 -14 13 -11 42 18 52 19 42 9 -11 -12 -150 -82 -162 -82 -9 0 -49
91 -45 103 1 5 -2 6 -7 3 -5 -3 -14 1 -21 9 -17 20 -31 19 -23 -2 6 -15 5 -15
-16 -1 -13 9 -29 14 -35 12 -14 -5 -82 21 -91 36 -3 5 3 10 15 10 13 0 24 9
30 26 13 32 56 92 91 125 19 17 25 30 19 39 -12 20 19 40 50 33 14 -3 41 -12
60 -20z"/>
<path d="M2616 2790 c-74 -13 -140 -37 -196 -70 -28 -17 -55 -28 -60 -25 -11
7 -72 -20 -63 -28 3 -4 -5 -20 -19 -35 -32 -34 -43 -55 -72 -139 -15 -44 -36
-82 -61 -108 -81 -86 -117 -220 -91 -343 19 -89 54 -157 81 -157 11 0 25 -3
32 -8 8 -5 11 2 11 23 -1 20 10 46 30 73 18 23 48 76 67 117 36 74 36 74 17
100 -42 56 -63 112 -67 178 -4 63 -4 64 5 18 5 -26 21 -72 36 -102 l27 -54 34
21 c112 69 228 101 373 101 58 0 124 -5 147 -10 32 -7 60 -5 120 9 151 36 405
17 554 -41 27 -11 54 -20 59 -20 31 0 -20 126 -80 201 -55 68 -153 145 -187
147 -13 0 -23 -4 -23 -9 0 -5 -9 -4 -19 3 -11 7 -18 15 -15 20 3 4 -8 14 -24
22 -16 8 -34 22 -41 30 -16 19 -35 21 -25 4 8 -13 -17 4 -43 29 -7 6 -54 21
-105 34 -103 25 -314 35 -402 19z"/>
<path d="M3691 2121 c-29 -29 -26 -57 8 -92 47 -46 121 -35 121 19 0 65 -87
115 -129 73z"/>
<path d="M1741 2014 c0 -55 4 -127 11 -158 9 -48 16 -59 37 -67 14 -6 45 -19
69 -30 40 -20 44 -20 89 -5 72 25 86 18 16 -8 -83 -31 -162 -80 -233 -143 -62
-56 -70 -61 -70 -40 0 13 -67 52 -82 49 -5 -1 -8 3 -8 10 0 13 -38 -19 -51
-44 -8 -14 -3 -20 23 -33 18 -8 42 -20 53 -27 11 -7 21 -14 23 -15 2 0 -17
-36 -42 -80 -25 -43 -57 -114 -71 -157 -63 -189 -33 -433 61 -500 27 -19 27
-19 22 0 -4 17 -1 20 23 16 19 -3 29 0 29 8 0 9 4 10 13 2 10 -9 17 -6 27 8 8
11 21 20 28 20 9 0 12 6 8 17 -4 10 -4 14 0 10 4 -4 18 0 30 8 27 17 37 7 36
-35 l-1 -28 30 29 c41 40 47 36 10 -6 -32 -36 -43 -96 -21 -110 20 -12 -1 -24
-41 -23 -49 0 -60 -8 -28 -21 16 -7 19 -10 7 -10 -9 -1 -20 4 -23 9 -3 6 -11
10 -17 10 -7 0 -6 -5 2 -15 6 -8 8 -20 4 -26 -4 -8 -3 -9 4 -5 7 4 12 0 12
-10 0 -14 7 -16 48 -11 26 3 73 15 106 27 49 19 60 28 73 59 48 117 191 303
268 351 33 21 34 21 69 2 l36 -19 -122 -124 c-66 -68 -117 -117 -113 -109 5 8
4 12 0 7 -5 -4 -19 0 -31 8 -14 9 -25 11 -29 5 -3 -6 -3 -10 2 -10 4 0 19 -9
32 -19 l23 -18 -26 -51 c-41 -81 -79 -243 -74 -315 4 -50 9 -64 32 -84 15 -12
39 -23 54 -23 16 0 22 -3 15 -8 -8 -5 -1 -16 23 -35 31 -26 114 -51 208 -63
30 -4 157 -39 191 -53 64 -26 140 -56 210 -84 44 -17 82 -35 83 -39 2 -5 48
-8 103 -8 95 0 101 1 178 41 95 48 107 60 90 87 -11 17 -9 25 14 52 23 27 27
41 27 93 0 94 -18 116 -150 182 -60 30 -113 55 -117 55 -7 0 88 -63 97 -65 5
-1 52 -25 58 -30 2 -2 -6 -18 -17 -36 -21 -34 -29 -85 -12 -75 11 7 3 -55 -10
-70 -5 -6 -5 -15 -1 -19 4 -5 1 -5 -5 -1 -7 4 -13 16 -13 26 0 20 -28 34 -52
25 -9 -4 -20 -17 -27 -31 -7 -16 -16 -22 -24 -18 -9 6 -9 4 -1 -7 14 -17 0
-60 -18 -55 -7 1 -10 1 -5 -1 4 -3 7 -14 7 -26 -1 -22 -1 -22 -17 -2 -15 19
-15 19 -9 -8 6 -26 5 -27 -14 -17 -13 7 -19 18 -16 26 6 14 -30 54 -48 54 -6
-1 -1 -9 12 -19 12 -11 22 -22 22 -26 0 -4 -7 -2 -15 5 -8 7 -15 9 -15 6 0
-16 -59 29 -75 56 -13 23 -19 27 -26 17 -6 -9 -7 -2 -3 19 5 25 3 32 -9 32 -9
0 -19 9 -22 20 -4 11 -11 18 -16 15 -8 -6 7 -44 23 -55 4 -3 3 -12 -2 -19 -6
-11 -12 -6 -24 17 -9 18 -22 31 -29 29 -6 -1 -11 6 -9 15 1 9 -3 20 -9 24 -9
5 -10 2 -6 -9 3 -10 2 -17 -4 -17 -6 0 -7 -5 -3 -12 4 -7 3 -8 -4 -4 -6 4 -9
13 -5 21 4 11 1 13 -11 9 -10 -4 -16 -1 -16 7 0 7 -3 10 -6 6 -3 -3 -17 6 -31
21 -13 15 -22 21 -18 14 5 -10 1 -10 -19 0 -28 12 -36 31 -9 21 11 -4 14 -3 9
5 -4 7 -13 12 -21 12 -7 0 -23 12 -35 27 -17 22 -23 25 -30 13 -6 -9 -10 -10
-10 -3 0 6 4 15 10 18 13 8 8 84 -7 89 -8 3 -11 -5 -8 -24 5 -41 -4 -70 -21
-63 -8 3 -14 9 -14 15 0 5 5 6 10 3 6 -3 10 -1 10 5 0 6 -7 13 -15 16 -8 4
-15 13 -15 21 0 13 2 13 16 2 15 -12 16 -11 10 9 -5 13 -3 22 3 22 6 0 11 9
11 21 0 11 -4 17 -10 14 -5 -3 -10 -1 -10 4 0 6 -8 11 -17 12 -11 0 -13 3 -6
6 9 3 -1 19 -27 46 -22 23 -38 48 -35 55 2 6 0 12 -4 12 -15 0 -21 31 -11 51
14 26 -4 25 -30 -1 -22 -22 -30 -25 -30 -9 0 11 60 69 72 69 5 0 8 -7 8 -15 0
-10 10 -15 28 -15 52 0 151 -38 298 -114 81 -42 149 -74 151 -72 2 2 -9 9 -24
17 -15 8 -81 43 -146 78 l-119 63 9 37 c14 60 10 195 -6 217 -14 18 -14 18 3
3 14 -13 26 -15 54 -8 41 9 36 12 143 -87 76 -70 130 -109 238 -170 75 -43 75
-44 41 -46 -19 0 -41 -1 -47 -1 -7 1 -10 -4 -7 -9 3 -5 0 -8 -7 -7 -8 2 -29
-1 -47 -5 -25 -6 -30 -11 -22 -21 6 -7 8 -20 4 -29 -4 -10 -1 -16 9 -16 8 0
17 -4 19 -8 5 -12 108 -52 134 -52 13 0 24 -4 24 -9 0 -5 13 -11 28 -14 32 -7
115 -75 106 -88 -3 -5 0 -9 5 -9 6 0 11 -8 11 -18 0 -11 9 -27 20 -37 11 -10
20 -24 20 -31 0 -7 8 -18 18 -23 9 -6 13 -11 8 -11 -5 0 -2 -7 5 -16 8 -9 14
-38 15 -63 0 -25 4 -55 7 -66 11 -34 133 -91 278 -132 132 -37 137 -38 336
-41 174 -2 213 0 281 17 298 74 472 216 527 430 18 71 15 94 -5 29 -19 -66
-54 -128 -99 -179 -22 -26 -37 -50 -33 -53 4 -4 2 -6 -3 -4 -6 1 -22 -7 -35
-20 -32 -29 -112 -82 -125 -82 -6 0 -27 -8 -46 -18 -30 -15 -65 -19 -220 -20
-263 -3 -404 25 -596 119 -150 74 -305 213 -356 321 -31 63 -61 203 -55 258 5
51 -5 51 -25 -1 -14 -35 -19 -40 -39 -34 -96 30 -273 150 -383 260 -138 137
-221 286 -261 467 -19 86 -22 252 -5 322 6 27 10 51 7 53 -9 9 -37 -102 -43
-168 l-6 -65 -51 50 c-37 38 -77 63 -151 96 -92 41 -107 45 -180 45 -44 0 -94
-3 -112 -7 -31 -7 -33 -6 -53 40 -22 50 -43 124 -58 207 -9 46 -10 42 -11 -51z
m272 -511 c4 -3 2 -12 -4 -20 -9 -10 -6 -13 17 -14 27 0 27 -1 -11 -15 -21 -8
-66 -35 -100 -61 -33 -25 -54 -40 -47 -33 23 26 12 32 -23 11 -31 -18 -34 -18
-26 -3 5 9 7 31 5 49 -3 27 1 34 33 53 19 11 38 19 40 16 3 -2 19 2 36 9 35
15 70 19 80 8z m311 -48 c-4 -8 -1 -15 5 -15 7 0 16 -10 21 -22 9 -23 9 -23
10 2 1 16 9 -1 22 -44 19 -60 20 -75 10 -124 -13 -61 -25 -81 -37 -61 -5 8 -4
10 3 5 16 -9 15 -3 -2 39 -16 36 -50 47 -73 24 -36 -36 -44 45 -11 118 12 26
21 51 20 55 -1 4 6 4 15 1 11 -4 14 -3 9 5 -4 7 -4 17 -1 22 9 15 15 12 9 -5z
m-284 -74 c0 -5 14 -23 30 -39 35 -35 39 -52 10 -45 -12 3 -19 13 -17 25 1 12
-4 23 -12 26 -10 3 -11 -2 -6 -19 7 -23 7 -23 -12 -6 -28 25 -40 21 -35 -12 2
-19 9 -28 20 -27 10 1 16 -6 16 -16 -1 -10 2 -18 7 -18 5 0 10 -8 10 -17 1
-10 4 -5 8 11 3 16 12 31 20 34 10 3 12 -5 9 -37 -2 -22 0 -41 4 -41 5 0 8 -9
8 -20 0 -11 7 -20 16 -20 8 0 12 -5 9 -10 -4 -6 -12 -7 -18 -3 -7 4 -21 9 -32
10 -14 2 -16 1 -7 -6 11 -7 11 -9 -2 -14 -25 -10 -46 3 -46 27 0 17 -2 18 -10
6 -8 -13 -13 -13 -39 3 -29 17 -30 17 -45 -4 -16 -24 -11 -49 10 -49 8 0 14
-4 14 -9 0 -5 10 -11 23 -13 14 -2 22 -10 22 -23 0 -25 -28 -23 -90 5 -24 11
-51 17 -59 14 -13 -5 -16 1 -16 30 0 89 77 212 154 247 47 21 56 23 56 10z"/>
<path d="M3070 2037 c-118 -40 -214 -116 -260 -207 -49 -97 -62 -236 -30 -327
11 -31 12 -31 95 -38 88 -8 96 -7 210 19 88 21 205 30 205 17 0 -5 -13 -19
-30 -31 -20 -14 -30 -30 -30 -46 0 -38 28 -84 50 -84 11 0 29 -9 39 -19 10
-10 28 -22 40 -26 58 -18 -1 -40 -165 -60 -65 -8 -145 -15 -177 -15 l-60 0 49
-38 c27 -21 68 -49 90 -61 l41 -23 84 17 c46 10 118 35 159 55 75 37 179 72
255 86 21 4 48 15 59 25 11 11 25 19 31 19 19 0 93 57 106 82 7 13 16 37 21
53 9 34 3 -124 -7 -165 -3 -14 7 0 22 30 38 78 44 200 14 300 -62 204 -249
383 -463 444 -87 25 -265 22 -348 -7z m305 -50 l40 -14 -37 -23 c-21 -12 -36
-26 -33 -30 8 -13 -21 -26 -109 -46 -43 -10 -73 -20 -67 -22 22 -7 10 -20 -24
-26 -20 -4 -46 -4 -58 0 -22 7 -22 8 3 15 18 5 11 7 -30 8 -31 1 -72 10 -95
21 -22 11 -48 19 -57 20 -63 1 77 81 185 106 73 16 222 12 282 -9z m382 -354
c61 -30 62 -30 48 -56 -22 -42 -77 -105 -117 -133 -35 -25 -37 -25 -68 -9 -18
9 -53 17 -78 17 -29 0 -41 3 -32 8 10 6 6 11 -14 16 -16 4 -38 16 -49 27 -19
19 -19 21 -4 47 9 15 14 30 11 32 -3 3 16 24 41 46 l46 41 77 -3 c61 -3 90 -9
139 -33z"/>
<path d="M2492 1594 c-22 -15 -31 -54 -11 -54 6 0 8 -8 4 -19 -8 -25 37 -61
77 -61 29 0 78 38 78 60 0 21 -30 69 -49 80 -28 15 -73 12 -99 -6z"/>
<path d="M5165 676 c-32 -14 -68 -50 -77 -77 -10 -26 19 -77 53 -94 49 -26
137 -17 183 19 20 15 39 39 42 53 20 79 -106 141 -201 99z"/>
<path d="M5427 609 c7 -50 -15 -98 -56 -122 -78 -46 -210 -55 -274 -18 -35 20
-67 70 -67 105 0 16 -4 25 -10 21 -5 -3 -10 -26 -10 -49 0 -56 22 -84 99 -124
98 -51 193 -42 266 26 83 76 99 116 70 172 -21 40 -24 38 -18 -11z"/>
<path d="M4894 500 c-36 -14 -65 -59 -54 -81 23 -43 100 -50 141 -13 32 29 24
61 -21 84 -21 11 -41 20 -42 19 -2 0 -13 -4 -24 -9z"/>
<path d="M4770 447 c0 -30 27 -120 45 -153 74 -127 253 -208 460 -208 99 1
118 4 189 32 62 25 91 43 129 83 56 58 56 75 0 32 -56 -45 -121 -75 -144 -68
-11 4 -25 2 -32 -3 -18 -14 -99 -11 -115 4 -15 16 -18 14 58 39 25 8 32 12 15
8 -16 -3 -75 -9 -130 -13 -67 -5 -93 -10 -77 -15 14 -5 22 -15 21 -29 -1 -15
-3 -16 -6 -5 -2 9 -14 17 -26 17 -67 1 -120 13 -166 35 -28 15 -51 24 -51 21
0 -3 -7 2 -16 10 -8 9 -13 20 -9 26 4 6 -1 7 -11 3 -13 -5 -15 -3 -9 7 5 8 4
11 -2 7 -12 -7 -67 32 -59 41 3 3 15 -3 26 -13 11 -10 20 -16 20 -13 0 2 -14
17 -32 34 -17 16 -27 23 -23 15 5 -10 4 -12 -4 -7 -6 4 -9 11 -7 15 3 4 -6 29
-19 56 -14 27 -25 46 -25 42z"/>
<path d="M5245 375 c-40 -8 -50 -13 -30 -13 17 -1 47 2 68 7 20 5 37 7 37 5 0
-3 -10 -19 -22 -35 l-23 -31 28 -24 c35 -30 85 -31 121 -3 79 62 -37 123 -179
94z"/>
</g>
</svg>
